<svg xmlns="http://www.w3.org/2000/svg" viewBox="0 0 780 346" font-family="ui-sans-serif, system-ui, sans-serif" role="img" aria-label="Point lookups at 100M — fixed-size std::array&lt;32&gt; keys">
<defs><linearGradient id="hot" x1="0" y1="0" x2="1" y2="0"><stop offset="0" stop-color="#22d3ee"/><stop offset="1" stop-color="#34d399"/></linearGradient></defs>
<text x="14" y="28" font-size="17" font-weight="600" fill="#e6edf6">Point lookups at 100M — fixed-size std::array&lt;32&gt; keys</text>
<text x="14" y="46" font-size="11.5" fill="#8da3bf">ns / lookup · inline keys: the hash map wins point lookups; artpp leads every ordered map 16–21×</text>
<text x="180" y="73.0" font-size="13" font-weight="400" fill="#b7c5d8" text-anchor="end">std::unordered_map</text>
<rect x="190" y="54" width="18.7" height="30" rx="6" fill="#a78bfa"/>
<text x="216.7" y="73.0" font-size="13" fill="#e6edf6">55 ns</text>
<text x="180" y="119.0" font-size="13" font-weight="600" fill="#e6edf6" text-anchor="end">artpp::map</text>
<rect x="190" y="100" width="22.8" height="30" rx="6" fill="url(#hot)"/>
<text x="220.8" y="119.0" font-size="13" fill="#e6edf6">67 ns</text>
<text x="180" y="165.0" font-size="13" font-weight="400" fill="#b7c5d8" text-anchor="end">libart</text>
<rect x="190" y="146" width="34.4" height="30" rx="6" fill="#5e97d0"/>
<text x="232.4" y="165.0" font-size="13" fill="#e6edf6">102 ns</text>
<text x="180" y="211.0" font-size="13" font-weight="400" fill="#b7c5d8" text-anchor="end">absl::btree_map</text>
<rect x="190" y="192" width="357.0" height="30" rx="6" fill="#7587a3"/>
<text x="555.0" y="211.0" font-size="13" fill="#e6edf6">1,057 ns</text>
<text x="180" y="257.0" font-size="13" font-weight="400" fill="#b7c5d8" text-anchor="end">std::map</text>
<rect x="190" y="238" width="480.0" height="30" rx="6" fill="#4a5a73"/>
<text x="678.0" y="257.0" font-size="13" fill="#e6edf6">1,422 ns</text>
<text x="180" y="303.0" font-size="13" font-weight="400" fill="#b7c5d8" text-anchor="end">art_map</text>
<rect x="190" y="284" width="480" height="30" rx="6" fill="none" stroke="#2e4f7a" stroke-width="1.5" stroke-dasharray="5 4"/>
<text x="430.0" y="303.0" font-size="12.5" fill="#7587a3" text-anchor="middle" font-style="italic">key &gt; 16 B — does not compile</text>
</svg>