<svg xmlns="http://www.w3.org/2000/svg" viewBox="0 0 760 334" font-family="ui-sans-serif, system-ui, sans-serif" role="img" aria-label="Full ordered scan — clustered strings">
<defs><linearGradient id="hot" x1="0" y1="0" x2="1" y2="0"><stop offset="0" stop-color="#22d3ee"/><stop offset="1" stop-color="#34d399"/></linearGradient><linearGradient id="hot2" x1="0" y1="0" x2="1" y2="0"><stop offset="0" stop-color="#34d399"/><stop offset="1" stop-color="#a3e635"/></linearGradient></defs>
<text x="14" y="28" font-size="17" font-weight="600" fill="#e6edf6">Full ordered scan — clustered strings</text>
<text x="14" y="46" font-size="11.5" fill="#8da3bf">ns / element, lower is better · one full in-order traversal</text>
<text x="180" y="73.0" font-size="13" font-weight="600" fill="#e6edf6" text-anchor="end">artpp::map</text>
<rect x="190" y="54" width="128.4" height="30" rx="6" fill="url(#hot)"/>
<text x="326.42145741203615" y="73.0" font-size="13" fill="#e6edf6">13.8</text>
<text x="180" y="117.0" font-size="13" font-weight="600" fill="#e6edf6" text-anchor="end">artpp::map&lt;buckets&gt;</text>
<rect x="190" y="98" width="60.4" height="30" rx="6" fill="url(#hot2)"/>
<text x="258.3953085945011" y="117.0" font-size="13" fill="#e6edf6">6.5</text>
<text x="180" y="161.0" font-size="13" font-weight="400" fill="#b7c5d8" text-anchor="end">artpp::map (std::allocator)</text>
<rect x="190" y="142" width="148.4" height="30" rx="6" fill="#3f8f86"/>
<text x="346.42914824072295" y="161.0" font-size="13" fill="#e6edf6">15.9</text>
<text x="180" y="205.0" font-size="13" font-weight="400" fill="#b7c5d8" text-anchor="end">libart</text>
<rect x="190" y="186" width="118.7" height="30" rx="6" fill="#5e97d0"/>
<text x="316.6502595654682" y="205.0" font-size="13" fill="#e6edf6">12.8</text>
<text x="180" y="249.0" font-size="13" font-weight="400" fill="#b7c5d8" text-anchor="end">absl::btree_map</text>
<rect x="190" y="230" width="63.7" height="30" rx="6" fill="#7587a3"/>
<text x="261.65237454335704" y="249.0" font-size="13" fill="#e6edf6">6.8</text>
<text x="180" y="293.0" font-size="13" font-weight="400" fill="#b7c5d8" text-anchor="end">std::map</text>
<rect x="190" y="274" width="484.0" height="30" rx="6" fill="#4a5a73"/>
<text x="682.0" y="293.0" font-size="13" fill="#e6edf6">52.0</text>
</svg>