<svg xmlns="http://www.w3.org/2000/svg" viewBox="0 0 760 334" font-family="ui-sans-serif, system-ui, sans-serif" role="img" aria-label="Point lookups — dictionary words (236k string keys)">
<defs><linearGradient id="hot" x1="0" y1="0" x2="1" y2="0"><stop offset="0" stop-color="#22d3ee"/><stop offset="1" stop-color="#34d399"/></linearGradient><linearGradient id="hot2" x1="0" y1="0" x2="1" y2="0"><stop offset="0" stop-color="#34d399"/><stop offset="1" stop-color="#a3e635"/></linearGradient></defs>
<text x="14" y="28" font-size="17" font-weight="600" fill="#e6edf6">Point lookups — dictionary words (236k string keys)</text>
<text x="14" y="46" font-size="11.5" fill="#8da3bf">ns / op, lower is better · queries: the stored keys, in random order</text>
<text x="180" y="73.0" font-size="13" font-weight="600" fill="#e6edf6" text-anchor="end">artpp::map</text>
<rect x="190" y="54" width="194.2" height="30" rx="6" fill="url(#hot)"/>
<text x="392.2203168012997" y="73.0" font-size="13" fill="#e6edf6">88.9</text>
<text x="180" y="117.0" font-size="13" font-weight="600" fill="#e6edf6" text-anchor="end">artpp::map&lt;buckets&gt;</text>
<rect x="190" y="98" width="170.8" height="30" rx="6" fill="url(#hot2)"/>
<text x="368.84922604810686" y="117.0" font-size="13" fill="#e6edf6">78.2</text>
<text x="180" y="161.0" font-size="13" font-weight="400" fill="#b7c5d8" text-anchor="end">artpp::map (std::allocator)</text>
<rect x="190" y="142" width="202.5" height="30" rx="6" fill="#3f8f86"/>
<text x="400.5203303398167" y="161.0" font-size="13" fill="#e6edf6">92.7</text>
<text x="180" y="205.0" font-size="13" font-weight="400" fill="#b7c5d8" text-anchor="end">libart</text>
<rect x="190" y="186" width="250.8" height="30" rx="6" fill="#5e97d0"/>
<text x="448.79146170856086" y="205.0" font-size="13" fill="#e6edf6">114.8</text>
<text x="180" y="249.0" font-size="13" font-weight="400" fill="#b7c5d8" text-anchor="end">absl::btree_map</text>
<rect x="190" y="230" width="412.4" height="30" rx="6" fill="#7587a3"/>
<text x="610.379620018954" y="249.0" font-size="13" fill="#e6edf6">188.8</text>
<text x="180" y="293.0" font-size="13" font-weight="400" fill="#b7c5d8" text-anchor="end">std::map</text>
<rect x="190" y="274" width="484.0" height="30" rx="6" fill="#4a5a73"/>
<text x="682.0" y="293.0" font-size="13" fill="#e6edf6">221.6</text>
</svg>