<svg xmlns="http://www.w3.org/2000/svg" viewBox="0 0 820 470" font-family="ui-sans-serif, system-ui, sans-serif" role="img" aria-label="Point-lookup latency from 1M to 100M double keys">
<defs><linearGradient id="hot" x1="0" y1="0" x2="1" y2="0"><stop offset="0" stop-color="#22d3ee"/><stop offset="1" stop-color="#34d399"/></linearGradient></defs>
<text x="14" y="28" font-size="17" font-weight="600" fill="#e6edf6">Point lookups: latency as the map grows 100×</text>
<text x="14" y="46" font-size="11.5" fill="#8da3bf">double keys · ns per lookup, lower is better · the radix trees stay flat; the comparison trees fan upward</text>
<rect x="14" y="58" width="12" height="12" rx="2" fill="#34d399"/>
<text x="31" y="68" font-size="11" fill="#8da3bf">artpp::map</text>
<rect x="130.0" y="58" width="12" height="12" rx="2" fill="#5e97d0"/>
<text x="147.0" y="68" font-size="11" fill="#8da3bf">libart</text>
<rect x="214.0" y="58" width="12" height="12" rx="2" fill="#a78bfa"/>
<text x="231.0" y="68" font-size="11" fill="#8da3bf">std::unordered_map</text>
<rect x="394.0" y="58" width="12" height="12" rx="2" fill="#7587a3"/>
<text x="411.0" y="68" font-size="11" fill="#8da3bf">absl::btree_map</text>
<rect x="550.0" y="58" width="12" height="12" rx="2" fill="#4a5a73"/>
<text x="567.0" y="68" font-size="11" fill="#8da3bf">std::map</text>
<line x1="178" y1="426.0" x2="668" y2="426.0" stroke="#22304a" stroke-width="1"/>
<text x="170" y="430.0" font-size="10.5" fill="#8da3bf" text-anchor="end">0</text>
<line x1="178" y1="372.5" x2="668" y2="372.5" stroke="#22304a" stroke-width="1"/>
<text x="170" y="376.5" font-size="10.5" fill="#8da3bf" text-anchor="end">100</text>
<line x1="178" y1="318.9" x2="668" y2="318.9" stroke="#22304a" stroke-width="1"/>
<text x="170" y="322.9" font-size="10.5" fill="#8da3bf" text-anchor="end">200</text>
<line x1="178" y1="265.4" x2="668" y2="265.4" stroke="#22304a" stroke-width="1"/>
<text x="170" y="269.4" font-size="10.5" fill="#8da3bf" text-anchor="end">300</text>
<line x1="178" y1="211.8" x2="668" y2="211.8" stroke="#22304a" stroke-width="1"/>
<text x="170" y="215.8" font-size="10.5" fill="#8da3bf" text-anchor="end">400</text>
<line x1="178" y1="158.3" x2="668" y2="158.3" stroke="#22304a" stroke-width="1"/>
<text x="170" y="162.3" font-size="10.5" fill="#8da3bf" text-anchor="end">500</text>
<line x1="178" y1="104.8" x2="668" y2="104.8" stroke="#22304a" stroke-width="1"/>
<text x="170" y="108.8" font-size="10.5" fill="#8da3bf" text-anchor="end">600</text>
<text x="178" y="448" font-size="12.5" fill="#8da3bf" text-anchor="middle">1M keys</text>
<text x="668" y="448" font-size="12.5" fill="#8da3bf" text-anchor="middle">100M keys</text>
<line x1="178" y1="330.2" x2="668" y2="97.1" stroke="#4a5a73" stroke-width="2.2"/>
<circle cx="178" cy="330.2" r="3.6" fill="#4a5a73"/>
<circle cx="668" cy="97.1" r="4.5" fill="#4a5a73"/>
<line x1="178" y1="379.0" x2="668" y2="209.7" stroke="#7587a3" stroke-width="2.2"/>
<circle cx="178" cy="379.0" r="3.6" fill="#7587a3"/>
<circle cx="668" cy="209.7" r="4.5" fill="#7587a3"/>
<line x1="178" y1="418.9" x2="668" y2="406.0" stroke="#a78bfa" stroke-width="2.2"/>
<circle cx="178" cy="418.9" r="3.6" fill="#a78bfa"/>
<circle cx="668" cy="406.0" r="4.5" fill="#a78bfa"/>
<line x1="178" y1="397.1" x2="668" y2="368.7" stroke="#5e97d0" stroke-width="2.2"/>
<circle cx="178" cy="397.1" r="3.6" fill="#5e97d0"/>
<circle cx="668" cy="368.7" r="4.5" fill="#5e97d0"/>
<line x1="178" y1="405.8" x2="668" y2="380.2" stroke="#34d399" stroke-width="3.4"/>
<circle cx="178" cy="405.8" r="3.6" fill="#34d399"/>
<circle cx="668" cy="380.2" r="4.5" fill="#34d399"/>
<text x="678" y="101.1" font-size="12" fill="#4a5a73">614 ns</text>
<text x="678" y="213.7" font-size="12" fill="#7587a3">404 ns</text>
<text x="678" y="372.7" font-size="12" fill="#5e97d0">107 ns</text>
<text x="678" y="387.7" font-size="12" fill="#34d399" font-weight="600">86 ns</text>
<text x="678" y="410.0" font-size="12" fill="#a78bfa">37 ns</text>
</svg>