<svg xmlns="http://www.w3.org/2000/svg" viewBox="0 0 760 334" font-family="ui-sans-serif, system-ui, sans-serif" role="img" aria-label="lower_bound — uniform random uint64">
<defs><linearGradient id="hot" x1="0" y1="0" x2="1" y2="0"><stop offset="0" stop-color="#22d3ee"/><stop offset="1" stop-color="#34d399"/></linearGradient><linearGradient id="hot2" x1="0" y1="0" x2="1" y2="0"><stop offset="0" stop-color="#34d399"/><stop offset="1" stop-color="#a3e635"/></linearGradient></defs>
<text x="14" y="28" font-size="17" font-weight="600" fill="#e6edf6">lower_bound — uniform random uint64</text>
<text x="14" y="46" font-size="12" fill="#8da3bf">ns / operation — lower is better</text>
<text x="180" y="73.0" font-size="13" font-weight="600" fill="#e6edf6" text-anchor="end">artpp::map</text>
<rect x="190" y="54" width="232.8" height="30" rx="6" fill="url(#hot)"/>
<text x="430.78598071644734" y="73.0" font-size="13" fill="#e6edf6">68.3</text>
<text x="180" y="117.0" font-size="13" font-weight="600" fill="#e6edf6" text-anchor="end">artpp::map&lt;buckets&gt;</text>
<rect x="190" y="98" width="256.7" height="30" rx="6" fill="url(#hot2)"/>
<text x="454.7322119783236" y="117.0" font-size="13" fill="#e6edf6">75.4</text>
<text x="180" y="161.0" font-size="13" font-weight="400" fill="#b7c5d8" text-anchor="end">artpp::map (std::allocator)</text>
<rect x="190" y="142" width="284.5" height="30" rx="6" fill="#3f8f86"/>
<text x="482.493490041523" y="161.0" font-size="13" fill="#e6edf6">83.5</text>
<text x="180" y="205.0" font-size="13" font-weight="400" fill="#b7c5d8" text-anchor="end">libart</text>
<rect x="190" y="186" width="484" height="30" rx="6" fill="none" stroke="#2e4f7a" stroke-width="1.5" stroke-dasharray="5 4"/>
<text x="432.0" y="205.0" font-size="12.5" fill="#7587a3" text-anchor="middle" font-style="italic">no lower_bound API — unsupported</text>
<text x="180" y="249.0" font-size="13" font-weight="400" fill="#b7c5d8" text-anchor="end">absl::btree_map</text>
<rect x="190" y="230" width="287.7" height="30" rx="6" fill="#7587a3"/>
<text x="485.7294672390738" y="249.0" font-size="13" fill="#e6edf6">84.5</text>
<text x="180" y="293.0" font-size="13" font-weight="400" fill="#b7c5d8" text-anchor="end">std::map</text>
<rect x="190" y="274" width="484.0" height="30" rx="6" fill="#4a5a73"/>
<text x="682.0" y="293.0" font-size="13" fill="#e6edf6">142.1</text>
</svg>