<svg xmlns="http://www.w3.org/2000/svg" viewBox="0 0 760 334" font-family="ui-sans-serif, system-ui, sans-serif" role="img" aria-label="Full ordered scan — uniform uint64">
<defs><linearGradient id="hot" x1="0" y1="0" x2="1" y2="0"><stop offset="0" stop-color="#22d3ee"/><stop offset="1" stop-color="#34d399"/></linearGradient><linearGradient id="hot2" x1="0" y1="0" x2="1" y2="0"><stop offset="0" stop-color="#34d399"/><stop offset="1" stop-color="#a3e635"/></linearGradient></defs>
<text x="14" y="28" font-size="17" font-weight="600" fill="#e6edf6">Full ordered scan — uniform uint64</text>
<text x="14" y="46" font-size="12" fill="#8da3bf">ns / operation — lower is better</text>
<text x="180" y="73.0" font-size="13" font-weight="600" fill="#e6edf6" text-anchor="end">artpp::map</text>
<rect x="190" y="54" width="119.6" height="30" rx="6" fill="url(#hot)"/>
<text x="317.64955357142856" y="73.0" font-size="13" fill="#e6edf6">13.3</text>
<text x="180" y="117.0" font-size="13" font-weight="600" fill="#e6edf6" text-anchor="end">artpp::map&lt;buckets&gt;</text>
<rect x="190" y="98" width="26.3" height="30" rx="6" fill="url(#hot2)"/>
<text x="224.28869047619048" y="117.0" font-size="13" fill="#e6edf6">2.9</text>
<text x="180" y="161.0" font-size="13" font-weight="400" fill="#b7c5d8" text-anchor="end">artpp::map (std::allocator)</text>
<rect x="190" y="142" width="162.2" height="30" rx="6" fill="#3f8f86"/>
<text x="360.23363095238096" y="161.0" font-size="13" fill="#e6edf6">18.0</text>
<text x="180" y="205.0" font-size="13" font-weight="400" fill="#b7c5d8" text-anchor="end">libart</text>
<rect x="190" y="186" width="106.1" height="30" rx="6" fill="#5e97d0"/>
<text x="304.1450892857143" y="205.0" font-size="13" fill="#e6edf6">11.8</text>
<text x="180" y="249.0" font-size="13" font-weight="400" fill="#b7c5d8" text-anchor="end">absl::btree_map</text>
<rect x="190" y="230" width="23.5" height="30" rx="6" fill="#7587a3"/>
<text x="221.49776785714286" y="249.0" font-size="13" fill="#e6edf6">2.6</text>
<text x="180" y="293.0" font-size="13" font-weight="400" fill="#b7c5d8" text-anchor="end">std::map</text>
<rect x="190" y="274" width="484.0" height="30" rx="6" fill="#4a5a73"/>
<text x="682.0" y="293.0" font-size="13" fill="#e6edf6">53.8</text>
</svg>